<svg xmlns="http://www.w3.org/2000/svg" viewBox="0 0 268.58 65.32"><defs><style>.cls-1{fill:#4c4948;}</style></defs><title>アセット 17icon</title><g id="レイヤー_2" data-name="レイヤー 2"><g id="レイヤー_1-2" data-name="レイヤー 1"><path class="cls-1" d="M77.84,35.49c.08.31.31.47.8.55a29.25,29.25,0,0,1,8.94-1.51A.68.68,0,0,0,88,34a.76.76,0,0,0-.3-.66l-1-.42c-2.49-1.07-2.54-1.09-2.54-6.42V11.25c0-3.53-.75-6.09-2.28-7.81S77.72.7,74.13.7c-4,0-7.45,2.43-10,4.21-.56.4-1.09.77-1.56,1.07h0c-.37,0-.8-.2-.8-1.21V.56A1.1,1.1,0,0,0,60.85,0c-2.53,1.41-6.55,2.21-9.78,2.85l-1.17.24a.89.89,0,0,0-.46.7,1.29,1.29,0,0,0,.36,1.06,16.11,16.11,0,0,1,3.26-.42c2.4,0,2.63,2.47,2.63,9v14.8c0,3.2-.09,5.71-.26,7.27.08.29.3.47.72.55,1.84-.83,6.41-1.42,9.77-1.51a.76.76,0,0,0,.49-.6.71.71,0,0,0-.42-.58l-1.07-.42-.84-.3c-1.8-.65-2.29-.83-2.29-5.62V12c0-2.76.68-3.94,1.69-4.88a11,11,0,0,1,6.8-2.51c3,0,5.08.87,6.3,2.66,1,1.51,1.52,3.72,1.52,7v14A60.06,60.06,0,0,1,77.84,35.49Zm-51.59.71a1.14,1.14,0,0,0,.95.56c2.52-1.4,6.54-2.21,9.77-2.85l1.18-.24A.86.86,0,0,0,38.6,33a1.24,1.24,0,0,0-.36-1.05,15.83,15.83,0,0,1-3.25.41c-2.41,0-2.63-2.47-2.63-9V8.54c0-3.21.08-5.72.25-7.27C32.53,1,32.32.8,31.9.72c-1.85.83-6.42,1.41-9.78,1.5a.78.78,0,0,0-.48.6.68.68,0,0,0,.41.59l1.08.41c.31.13.59.23.83.31,1.8.65,2.29.82,2.29,5.62v15c0,2.75-.68,3.94-1.69,4.87a10.93,10.93,0,0,1-6.79,2.52c-3,0-5.09-.86-6.31-2.66-1-1.51-1.51-3.73-1.51-7v-14a61.23,61.23,0,0,1,.25-7.27C10.12,1,9.89.8,9.4.72A29,29,0,0,1,.46,2.22.77.77,0,0,0,0,2.75a.78.78,0,0,0,.31.66l1,.41c2.48,1.08,2.53,1.1,2.53,6.43V25.51c0,3.53.75,6.08,2.29,7.81s4.19,2.73,7.78,2.73c4,0,7.45-2.43,10-4.2.56-.4,1.1-.77,1.57-1.08h0c.52,0,.8.43.8,1.22Z"/><path class="cls-1" d="M203.61,64.72a.52.52,0,0,1,.56-.56h.26a.51.51,0,0,0,.46-.24,9.65,9.65,0,0,0,.8-1.54,2.12,2.12,0,0,0,.14-.6,2.66,2.66,0,0,0-.24-1l-1.08-3c-.23-.65-.33-1-.82-1.08l-.34-.07c-.08-.07-.07-.31,0-.34.44,0,.86,0,1.31,0l1.21,0c.11,0,.12.27,0,.34l-.35.07c-.19,0-.3.09-.3.18a10.47,10.47,0,0,0,.4,1.3l.44,1.28a10.55,10.55,0,0,0,.4,1,6.05,6.05,0,0,0,.52-1l.47-1.1A6.44,6.44,0,0,0,208,57c0-.09-.08-.19-.33-.23l-.43-.07c-.09-.07-.08-.31,0-.34l1.22,0,1,0a.23.23,0,0,1,0,.34l-.23,0c-.46.08-.71.49-1.18,1.47l-.78,1.6c-.46.92-1.6,3.33-2.27,4.84a.93.93,0,0,1-.89.66A.56.56,0,0,1,203.61,64.72Z"/><path class="cls-1" d="M214.38,59.83c0,1,.24,1.59,1.29,1.59a1.84,1.84,0,0,0,1.12-.41,1,1,0,0,0,.28-.81V57.93c0-.9-.1-.93-.51-1.1l-.18-.06a.19.19,0,0,1,0-.31,5.68,5.68,0,0,0,1.62-.25c.07,0,.11,0,.13.1a11.71,11.71,0,0,0,0,1.21v2.32c0,1.1,0,1.51.44,1.51a2.09,2.09,0,0,0,.53-.07c.09.07.1.35,0,.41a6.85,6.85,0,0,0-1.81.51.19.19,0,0,1-.17-.1v-.57c0-.12,0-.19-.13-.19a3.61,3.61,0,0,1-1.91.72c-1.22,0-1.67-.61-1.67-1.73V58c0-.87,0-1-.42-1.18l-.17-.06c-.08-.07-.07-.27,0-.31a5.06,5.06,0,0,0,1.48-.25c.09,0,.13,0,.14.1,0,.23,0,.52,0,1.21Z"/><path class="cls-1" d="M230.1,58.3c0-.94-.42-1.42-1.29-1.42a1.48,1.48,0,0,0-1.15.48c-.17.21-.21.36-.21.84v2.11c0,1,0,1.14.52,1.21l.3,0c.09.07.07.31,0,.35-.42,0-.82,0-1.3,0s-.88,0-1.26,0a.24.24,0,0,1,0-.35l.25,0c.51-.08.53-.21.53-1.21v-2c0-.92-.42-1.42-1.28-1.42a1.46,1.46,0,0,0-1.16.5c-.15.16-.21.34-.21.78v2.15c0,1,0,1.13.52,1.21l.25,0a.24.24,0,0,1,0,.35c-.37,0-.77,0-1.26,0s-.91,0-1.34,0c-.1,0-.12-.28,0-.35l.34,0c.51-.07.52-.21.52-1.21V57.89c0-.54,0-.61-.37-.86l-.13-.08a.21.21,0,0,1,0-.25,7.16,7.16,0,0,0,1.39-.68.16.16,0,0,1,.16.1,6.34,6.34,0,0,0,0,.65.14.14,0,0,0,.15.15,3.28,3.28,0,0,1,1.84-.71,1.57,1.57,0,0,1,1.47.82.42.42,0,0,0,.34-.11,3.61,3.61,0,0,1,1.9-.71,1.56,1.56,0,0,1,1.64,1.72v2.38c0,1,0,1.14.53,1.21l.33,0a.24.24,0,0,1,0,.35c-.46,0-.86,0-1.34,0s-.87,0-1.27,0a.26.26,0,0,1,0-.35l.26,0c.52-.08.53-.21.53-1.21Z"/><path class="cls-1" d="M235.86,57.89c0-.54,0-.61-.37-.86l-.13-.08c-.05-.06-.05-.21,0-.25A9.63,9.63,0,0,0,236.8,56c.07,0,.13,0,.14.08,0,.49-.05,1.15-.05,1.72v2.49c0,1,0,1.14.52,1.21l.29,0a.24.24,0,0,1,0,.35c-.42,0-.82,0-1.3,0s-.93,0-1.31,0c-.09,0-.11-.28,0-.35l.3,0c.51-.07.52-.21.52-1.21Zm1.15-4a.67.67,0,0,1-.73.72.68.68,0,0,1-.71-.69.72.72,0,0,1,.75-.75A.69.69,0,0,1,237,53.94Z"/><path class="cls-1" d="M241.93,54.05c0-.82,0-.9-.42-1.15l-.14-.09a.2.2,0,0,1,0-.27,10.35,10.35,0,0,0,1.49-.58A.13.13,0,0,1,243,52c0,.42,0,1.11,0,1.72v2.91a.53.53,0,0,0,0,.27,3.12,3.12,0,0,1,1.87-.73A1.62,1.62,0,0,1,246.67,58v2.31c0,1,0,1.15.53,1.21l.37,0c.1.07.08.31,0,.35-.49,0-.89,0-1.38,0s-.91,0-1.29,0a.25.25,0,0,1,0-.35l.28,0c.51-.08.53-.21.53-1.21v-2c0-.88-.43-1.48-1.32-1.48a1.65,1.65,0,0,0-1.08.37c-.25.21-.29.28-.29.77v2.32c0,1,0,1.14.52,1.21l.3,0a.25.25,0,0,1,0,.35c-.41,0-.81,0-1.31,0s-.91,0-1.35,0c-.1,0-.12-.28,0-.35l.35,0c.51-.06.52-.21.52-1.21Z"/><path class="cls-1" d="M253.4,59c.21-.07.23-.2.23-.41l0-.63c0-.51-.16-1.21-1-1.21-.38,0-.85.2-.89.63,0,.22,0,.38-.13.47a1.57,1.57,0,0,1-.79.26.18.18,0,0,1-.2-.19c0-.72,1.57-1.71,2.59-1.71s1.48.58,1.44,1.62l-.09,2.41c0,.64.1,1.21.64,1.21a.9.9,0,0,0,.35-.08c.07,0,.14-.1.18-.1s.09.08.09.18a1.46,1.46,0,0,1-1.16.61,1.11,1.11,0,0,1-.9-.43c-.06-.08-.14-.19-.22-.19a1.93,1.93,0,0,0-.55.28,2.09,2.09,0,0,1-1,.34,1.46,1.46,0,0,1-1-.32,1.29,1.29,0,0,1-.42-1c0-.54.26-.86,1.14-1.17Zm-.86,2.44a1.54,1.54,0,0,0,.84-.35.86.86,0,0,0,.18-.65l0-.82c0-.15-.05-.18-.14-.18a2.72,2.72,0,0,0-.56.14c-.83.28-1.23.48-1.23,1A.84.84,0,0,0,252.54,61.44Z"/><path class="cls-1" d="M259.24,57.89c0-.54,0-.61-.38-.86l-.12-.08a.18.18,0,0,1,0-.25,11.14,11.14,0,0,0,1.4-.68c.06,0,.11,0,.11.1v.8c0,.07,0,.11,0,.12a2.79,2.79,0,0,1,1.52-.83.57.57,0,0,1,.62.56.61.61,0,0,1-.59.63.6.6,0,0,1-.31-.09,1.1,1.1,0,0,0-.6-.23.61.61,0,0,0-.5.28,2.12,2.12,0,0,0-.18,1.07v1.88c0,1,0,1.16.55,1.21l.5,0a.24.24,0,0,1,0,.35c-.65,0-1,0-1.54,0s-.91,0-1.27,0c-.1,0-.12-.28,0-.35l.27,0c.51-.08.53-.21.53-1.21Z"/><path class="cls-1" d="M266.67,57.89c0-.54,0-.61-.38-.86l-.11-.08a.18.18,0,0,1,0-.25,9.27,9.27,0,0,0,1.43-.68c.07,0,.12,0,.14.08,0,.49-.06,1.15-.06,1.72v2.49c0,1,0,1.14.52,1.21l.29,0c.1.07.08.31,0,.35-.42,0-.82,0-1.3,0s-.92,0-1.31,0a.25.25,0,0,1,0-.35l.29,0c.51-.07.52-.21.52-1.21Zm1.15-4a.67.67,0,0,1-.73.72.68.68,0,0,1-.71-.69.72.72,0,0,1,.75-.75A.69.69,0,0,1,267.82,53.94Z"/></g></g></svg>