<svg xmlns="http://www.w3.org/2000/svg" width="32" height="32"><path fill="#fff" d="M16 2.883c4.272 0 4.778.017 6.466.093 1.56.071 2.407.332 2.971.551.722.27 1.338.678 1.841 1.196l.001.001c.519.504.927 1.12 1.186 1.808l.011.034c.219.564.48 1.411.551 2.971.077 1.688.093 2.193.093 6.466s-.017 4.778-.093 6.466c-.071 1.56-.332 2.407-.551 2.971a5.334 5.334 0 0 1-3.001 3.024l-.036.012c-.564.219-1.411.48-2.971.551-1.687.077-2.193.093-6.466.093s-4.779-.017-6.466-.093c-1.56-.071-2.407-.332-2.971-.551a4.969 4.969 0 0 1-1.841-1.196l-.001-.001a4.956 4.956 0 0 1-1.186-1.808l-.011-.034c-.219-.564-.48-1.411-.551-2.971-.077-1.688-.093-2.193-.093-6.466s.017-4.778.093-6.466c.071-1.56.332-2.407.551-2.971a4.969 4.969 0 0 1 1.196-1.841l.001-.001a4.956 4.956 0 0 1 1.808-1.186l.034-.011c.564-.219 1.411-.48 2.971-.551 1.688-.077 2.193-.093 6.466-.093zm.003-2.886c-4.346 0-4.89.018-6.597.097S6.538.445 5.52.84a7.887 7.887 0 0 0-2.833 1.844l-.001.001a7.856 7.856 0 0 0-1.824 2.78l-.018.054C.445 6.537.175 7.7.097 9.403S0 11.655 0 16s.018 4.89.097 6.597.348 2.866.744 3.884a7.887 7.887 0 0 0 1.844 2.833l.001.001a7.864 7.864 0 0 0 2.78 1.827l.054.018c1.016.395 2.181.666 3.884.744s2.252.096 6.597.096 4.89-.018 6.597-.096 2.866-.349 3.884-.744a8.232 8.232 0 0 0 4.66-4.624l.019-.055c.395-1.016.666-2.181.744-3.884s.096-2.252.096-6.597-.018-4.89-.096-6.597-.349-2.866-.744-3.884a7.89 7.89 0 0 0-1.845-2.833l-.001-.001a7.856 7.856 0 0 0-2.78-1.824l-.054-.018C25.463.444 24.3.174 22.597.096S20.345-.001 16-.001z"/><path fill="#fff" d="M16 7.784a8.217 8.217 0 1 0 8.217 8.217v-.002a8.215 8.215 0 0 0-8.215-8.215h-.001zm0 13.549a5.336 5.336 0 1 1 5.335-5.335A5.336 5.336 0 0 1 16 21.333zM26.461 7.459a1.92 1.92 0 1 1-3.841-.001 1.92 1.92 0 0 1 3.841.001z"/></svg>