<svg xmlns="http://www.w3.org/2000/svg" viewBox="0 0 83.63 29.37"><path d="M8.06 16.65H5.15a.35.35 0 0 0 0 .2 5.79 5.79 0 0 1 .65.15c.5.13.43.47.41.61a26.48 26.48 0 0 1-1.77 5h-.08c-.08-.16-1.77-4.57-1.94-5.26a.24.24 0 0 1 .15-.3l.63-.15a1.23 1.23 0 0 0 0-.19H.07a.69.69 0 0 0 0 .2 4.88 4.88 0 0 1 .66.15c.41.14.58.5 1 1.61.61 1.51 1.54 4 1.9 5a1 1 0 0 1 .12.31 29.19 29.19 0 0 1-3 4.76v.08a.11.11 0 0 1 0 .05 1.74 1.74 0 0 0 .64.42h.05l.3-.49c.13-.22.25-.4.34-.56a69.36 69.36 0 0 0 4.75-10.52.94.94 0 0 1 .71-.72 4.24 4.24 0 0 1 .52-.11.38.38 0 0 0 0-.21zm11.6 6.75a2.3 2.3 0 0 1-.51.05c-.47 0-.62-.08-.62-1v-3.9c0-.93 0-1.58.06-1.93a14.88 14.88 0 0 1-2.71.29.69.69 0 0 0 0 .21 7.57 7.57 0 0 1 1.24.16.55.55 0 0 1 .4.58c.06.86.06 4 0 4.39a.9.9 0 0 1-.28.61 2.48 2.48 0 0 1-1.7.65 1.57 1.57 0 0 1-1.7-1.28 10.71 10.71 0 0 1-.12-1.95 35.91 35.91 0 0 1 .08-3.67 9.9 9.9 0 0 1-2.18.28.64.64 0 0 0 0 .2 2.74 2.74 0 0 1 .85.17c.23.1.24.37.26.67v3.76c0 1.22.25 2.62 2.19 2.62a4.06 4.06 0 0 0 2.49-1.2.09.09 0 0 1 .06 0 .11.11 0 0 1 .06.09v1.11a.18.18 0 0 0 .06.13 13.78 13.78 0 0 1 2.13-.73.81.81 0 0 0 0-.22s-.05-.09-.06-.09zm16.85.46a2.12 2.12 0 0 1-1-.25c-.15-.11-.16-.28-.16-.48v-3.77c0-1.33-.43-2.93-2.17-2.93a5.15 5.15 0 0 0-2.74 1.34.15.15 0 0 1-.11 0 .08.08 0 0 1-.06-.05 2.11 2.11 0 0 0-1.92-1.31 5.08 5.08 0 0 0-2.59 1.32.09.09 0 0 1-.06-.08v-1.18a4.68 4.68 0 0 1-1.94.72.65.65 0 0 0-.05.18h.05a1.4 1.4 0 0 1 .79.36 1.3 1.3 0 0 1 .18.71c0 1.3 0 3.21-.05 4.33 0 .35 0 .78-.41.89a5 5 0 0 1-.73.15.41.41 0 0 0 0 .19h3.29a.64.64 0 0 0 0-.2c-.34-.06-.58-.1-.77-.15s-.36-.33-.36-.64v-4.6a.92.92 0 0 1 .44-.66 2.72 2.72 0 0 1 1.52-.56 1.74 1.74 0 0 1 1.77 1.45 38.11 38.11 0 0 1 .06 4.19c0 .59-.11.74-.35.82a4.57 4.57 0 0 1-.65.14h-.06a.6.6 0 0 0 0 .19h3.17a.44.44 0 0 0 0-.2h-.07a4.07 4.07 0 0 1-.74-.14.51.51 0 0 1-.3-.49c-.05-.63 0-1.93 0-3v-.67a7.35 7.35 0 0 0-.08-1.32s0-.16.07-.19a2.66 2.66 0 0 1 1.84-.82 1.75 1.75 0 0 1 1.88 1.58 18 18 0 0 1 .08 2.59v.81c0 .91 0 1.32-.27 1.42a2.65 2.65 0 0 1-.7.18h-.17a.61.61 0 0 0 0 .19h.06c.29 0 .73-.05 1.55-.05h1.68a.58.58 0 0 0 0-.19s.1.18.08.18zm7.41 0a4.62 4.62 0 0 1-.72-.15.6.6 0 0 1-.42-.66v-6.53a6.37 6.37 0 0 1-1.93.49.61.61 0 0 0 0 .19 1.53 1.53 0 0 1 .81.37.56.56 0 0 1 .1.36v4.92c0 .49-.15.71-.37.81a2.7 2.7 0 0 1-.73.16.61.61 0 0 0 0 .19h3.24v-.18l.02.03zm-2.25-9.5h.16a1.5 1.5 0 0 0 .42-.06.74.74 0 0 0 .36-.7.52.52 0 0 0-.15-.37.68.68 0 0 0-.46-.13.94.94 0 0 0-.63.26.58.58 0 0 0-.09.36.68.68 0 0 0 .39.64zm9.7 9.73h.19a.49.49 0 0 0 0-.17 5.4 5.4 0 0 1-.65-.11c-.4-.11-.52-.3-.56-.9s0-3.17 0-4.46a.84.84 0 0 1 .28-.52 2.48 2.48 0 0 1 1.66-.64 1.76 1.76 0 0 1 1.9 1.47 22.72 22.72 0 0 1 .1 3.7v.16c0 1-.13 1-.34 1.13a2.5 2.5 0 0 1-.62.14h-.19a.39.39 0 0 0 0 .19c.3 0 .9-.05 1.61-.05h1.74a.63.63 0 0 0 0-.19h-.2a1.5 1.5 0 0 1-.8-.27.47.47 0 0 1-.15-.37v-3.76c0-1.87-.82-3-2.2-3a4.66 4.66 0 0 0-2.7 1.24h-.09V12.5c0-1.06 0-1.42.17-1.64a.41.41 0 0 0 0-.08h-.05a7.38 7.38 0 0 1-2.34.6.76.76 0 0 0 0 .15h.72c.31.06.39.23.43.52.07.72.09 2.19.09 7.49v3.25c0 .4-.08.8-.44.91a3 3 0 0 1-.53.1h-.11a.59.59 0 0 0 0 .19.05.05 0 0 0 .05 0h3.12zm15.47-.76a1.59 1.59 0 0 1-.62.09c-.66 0-.74-.63-.74-.9v-3.29a3.72 3.72 0 0 0-.38-1.87 1.88 1.88 0 0 0-1.63-.93 5 5 0 0 0-2.36 1.09 2.14 2.14 0 0 0-.34.87c0 .15.2.31.29.35a2.92 2.92 0 0 1 .94-1.49 1.09 1.09 0 0 1 .61-.16 1.87 1.87 0 0 1 1.59.77 2.08 2.08 0 0 1 .36 1.14v.89a.39.39 0 0 1-.11.17 15.22 15.22 0 0 1-1.75.64 14.14 14.14 0 0 0-1.84.68 3.62 3.62 0 0 0-.18.88 2.31 2.31 0 0 0 .61 1.58 1.35 1.35 0 0 0 .94.42 7.5 7.5 0 0 0 2.2-1 .1.1 0 0 1 .06.08 1.61 1.61 0 0 0 .15.53.85.85 0 0 0 .82.42 1.92 1.92 0 0 0 1.36-.65 1 1 0 0 0 .06-.26zm-2.34-.69a.5.5 0 0 1-.21.41 2.52 2.52 0 0 1-1.19.37A1.35 1.35 0 0 1 61.7 22a1.48 1.48 0 0 1 .14-.56 13.51 13.51 0 0 1 2.61-1.05s.08 0 .08.06c.01.35-.01 1.55-.03 2.19zm10.55-6.21a1.51 1.51 0 0 0-.94.39 6 6 0 0 0-1.17 1.29h-.09v-1.59a6.33 6.33 0 0 1-1.91.64.44.44 0 0 0 0 .13.05.05 0 0 0 0 .05c.8.18.93.5 1 .72a15.86 15.86 0 0 1 0 1.63c0 1.53 0 3.27-.08 3.58a.47.47 0 0 1-.34.48 4.16 4.16 0 0 1-.69.15.61.61 0 0 0 0 .19c.34 0 1.27-.05 1.76-.05h1.76a.4.4 0 0 0 0-.19 3.86 3.86 0 0 1-1-.17c-.25-.08-.36-.26-.38-.64s-.06-2.41-.06-3.63a2.28 2.28 0 0 1 .2-.92c.23-.42.6-1 1.1-1a1.64 1.64 0 0 1 1 .42h.09a2.86 2.86 0 0 0 .51-.85.52.52 0 0 0 0-.25.86.86 0 0 0-.76-.38zm8.55 7.43a4.15 4.15 0 0 1-.72-.15.61.61 0 0 1-.43-.66v-6.53a6.23 6.23 0 0 1-1.93.49.61.61 0 0 0 0 .19 1.6 1.6 0 0 1 .82.37.56.56 0 0 1 .1.36v4.92c0 .49-.15.71-.36.81a2.77 2.77 0 0 1-.74.16.61.61 0 0 0 0 .19h3.27a.9.9 0 0 0 0-.18s.01.03-.01.03zm-2.07-9.5h.16a1.58 1.58 0 0 0 .43-.06.76.76 0 0 0 .35-.7.55.55 0 0 0-.14-.37.74.74 0 0 0-.44-.15.91.91 0 0 0-.62.26.58.58 0 0 0-.09.36.69.69 0 0 0 .35.66zM.38 6.63c.15-.06.18-.22.19-.38V4.59a8.11 8.11 0 0 0 0-.89c0-.14-.09-.17-.47-.28V3.3a3.17 3.17 0 0 0 1-.37v.58c0 .16 0 .06 0 0a2.5 2.5 0 0 1 1.4-.66 1 1 0 0 1 .85.49 2.1 2.1 0 0 1 .24 1.14v1.81c0 .14 0 .21.15.25a1.84 1.84 0 0 0 .42.09.16.16 0 0 1 0 .15H2.42a.19.19 0 0 1 0-.15 2.73 2.73 0 0 0 .41-.07.28.28 0 0 0 .21-.28V4.21a1.18 1.18 0 0 0-.28-.67.81.81 0 0 0-.66-.25 1.24 1.24 0 0 0-.9.38c-.08.08-.11.17-.11.42v2c0 .27.05.35.16.4a2.2 2.2 0 0 0 .46.09.3.3 0 0 1 0 .16H-.03c-.14 0 0-.13 0-.15a1.49 1.49 0 0 0 .41.04zm8.13-2.96a.94.94 0 0 0-.8-.38.54.54 0 0 0-.31.08 1.44 1.44 0 0 0-.4.76s-.21-.13-.21-.19A1.08 1.08 0 0 1 7 3.48a2.55 2.55 0 0 1 1.2-.55 1 1 0 0 1 .8.47 1.93 1.93 0 0 1 .2 1v1.68c0 .19.07.44.36.44a1.06 1.06 0 0 0 .36-.05.53.53 0 0 1 0 .18 1 1 0 0 1-.7.34.42.42 0 0 1-.42-.22.9.9 0 0 1-.08-.28A3.61 3.61 0 0 1 7.49 7 .67.67 0 0 1 7 6.73a1.17 1.17 0 0 1-.32-.81 1.74 1.74 0 0 1 .1-.46c.28-.17 1.54-.52 1.85-.68a.18.18 0 0 0 0-.08v-.46a1.07 1.07 0 0 0-.12-.57zM8.65 5a6.27 6.27 0 0 0-1.33.54.67.67 0 0 0-.07.27.68.68 0 0 0 .75.67 1.25 1.25 0 0 0 .6-.18.24.24 0 0 0 .1-.2V4.98C8.68 5 8.66 5 8.65 5zm5.17 1.86h-1.73a.2.2 0 0 1 0-.15 1.65 1.65 0 0 0 .41-.09c.11 0 .15-.11.17-.4s0-1.06 0-1.62v-.88a.33.33 0 0 0 0-.18.77.77 0 0 0-.43-.18v-.15a3.1 3.1 0 0 0 1-.28v3.38a.3.3 0 0 0 .2.32 1.83 1.83 0 0 0 .4.08s0 .14-.02.15zm-.75-5a.8.8 0 0 1-.31 0 .33.33 0 0 1-.18-.33.3.3 0 0 1 .05-.19.46.46 0 0 1 .37-.11.39.39 0 0 1 .23.08.29.29 0 0 1 .08.2.4.4 0 0 1-.24.37zM16 6.71a1.43 1.43 0 0 0 .43-.1.29.29 0 0 0 .16-.24V.84c0-.24 0-.24-.15-.28a2.25 2.25 0 0 0-.41-.07.1.1 0 0 1 0-.12 3.46 3.46 0 0 0 1.2-.37.09.09 0 0 1 0 .05 3.94 3.94 0 0 0-.09 1.11v4.99c0 .23.05.4.2.47a1.24 1.24 0 0 0 .42.09.25.25 0 0 1 0 .15H16a.26.26 0 0 1 0-.15z" fill="#fff" data-name="レイヤー 2"/></svg>