<svg xmlns="http://www.w3.org/2000/svg" viewBox="0 0 165.44 40.23"><g data-name="レイヤー 2"><path d="M48 21.86c0 .19.19.29.49.34a17.85 17.85 0 0 1 5.51-.93.44.44 0 0 0 .28-.32.47.47 0 0 0-.19-.41l-.61-.25c-1.53-.67-1.57-.68-1.57-4V6.93a7 7 0 0 0-1.4-4.81C49.44 1 47.87.43 45.66.43c-2.46 0-4.58 1.5-6.13 2.57-.35.25-.67.48-1 .66-.22 0-.48-.13-.48-.75V.34a.72.72 0 0 0-.57-.34 23 23 0 0 1-6 1.76l-.72.15a.5.5 0 0 0-.28.43.78.78 0 0 0 .22.65 9.36 9.36 0 0 1 2-.26c1.47 0 1.61 1.52 1.61 5.53v9.12c0 2 0 3.52-.15 4.48.05.18.18.29.44.34a20.9 20.9 0 0 1 6-.93.44.44 0 0 0 .29-.37.41.41 0 0 0-.25-.36l-.64-.25c-.19-.08-.36-.14-.52-.19-1.11-.4-1.4-.51-1.4-3.46V7.39a3.56 3.56 0 0 1 1-3 6.76 6.76 0 0 1 4.19-1.55c1.86 0 3.13.53 3.88 1.64a7.53 7.53 0 0 1 .94 4.3v8.6a36.79 36.79 0 0 1-.09 4.48zm-31.78.44a.68.68 0 0 0 .59.34 22.94 22.94 0 0 1 6-1.76l.73-.14a.55.55 0 0 0 .28-.44.76.76 0 0 0-.23-.65 9.28 9.28 0 0 1-2 .26c-1.48 0-1.62-1.52-1.62-5.53V5.26c0-2 .06-3.52.16-4.48-.13-.19-.22-.29-.48-.34a21 21 0 0 1-6 .93.45.45 0 0 0-.3.37c0 .14.09.26.26.36l.66.25.51.2c1.11.39 1.41.5 1.41 3.46v9.24a3.56 3.56 0 0 1-1 3A6.71 6.71 0 0 1 11 19.8c-1.87 0-3.14-.53-3.89-1.63a7.66 7.66 0 0 1-.93-4.31v-8.6A36.91 36.91 0 0 1 6.29.78c0-.19-.2-.29-.5-.34a17.83 17.83 0 0 1-5.5.93.46.46 0 0 0-.29.32.5.5 0 0 0 .19.41l.62.25c1.53.67 1.55.68 1.55 4v9.39a7 7 0 0 0 1.42 4.81c1 1.14 2.58 1.69 4.79 1.69 2.47 0 4.59-1.5 6.13-2.59.35-.25.68-.48 1-.66.32 0 .49.27.49.75zm109.2 17.57a.32.32 0 0 1 .34-.35h.16a.33.33 0 0 0 .29-.15 5.79 5.79 0 0 0 .49-.95 1.11 1.11 0 0 0 .09-.36 1.61 1.61 0 0 0-.15-.59l-.64-1.83c-.14-.4-.2-.61-.5-.67h-.21c-.05 0-.05-.19 0-.21h1.56c.06 0 .07.17 0 .21h-.21c-.12 0-.19.06-.19.11a6.65 6.65 0 0 0 .25.81l.27.78a5.27 5.27 0 0 0 .25.61 4.27 4.27 0 0 0 .32-.63l.29-.68a4 4 0 0 0 .29-.85c0-.06-.05-.12-.2-.15h-.27c-.05 0 0-.19 0-.21h1.4a.14.14 0 0 1 0 .21L129 35c-.29 0-.44.3-.73.9l-.48 1c-.28.57-1 2.06-1.4 3a.57.57 0 0 1-.55.4.34.34 0 0 1-.42-.43zm6.63-3.02c0 .59.15 1 .8 1a1.12 1.12 0 0 0 .69-.25.6.6 0 0 0 .17-.5v-1.4c0-.55-.06-.57-.32-.67h-.11a.12.12 0 0 1 0-.19 3.32 3.32 0 0 0 1-.16.1.1 0 0 1 .08.06 6.94 6.94 0 0 0 0 .75v1.43c0 .67 0 .93.27.93a2.11 2.11 0 0 0 .33 0c.05 0 .06.21 0 .25a4.64 4.64 0 0 0-1.12.31.11.11 0 0 1-.1-.06v-.45c0-.08 0-.12-.08-.12a2.25 2.25 0 0 1-1.17.45c-.76 0-1-.38-1-1.07v-1.43c0-.53 0-.61-.25-.72h-.11c-.05 0 0-.17 0-.19a2.92 2.92 0 0 0 .91-.16c.06 0 .08 0 .09.06a5.67 5.67 0 0 0 0 .75zm9.68-.94c0-.58-.25-.88-.79-.88a.93.93 0 0 0-.71.3.69.69 0 0 0-.13.52v1.3c0 .61 0 .7.33.74h.18a.14.14 0 0 1 0 .21h-1.58c-.06 0-.07-.17 0-.21h.16c.31 0 .32-.13.32-.74v-1.24c0-.57-.26-.88-.78-.88a.94.94 0 0 0-.72.31.64.64 0 0 0-.13.49v1.32c0 .61 0 .69.32.74h.16a.14.14 0 0 1 0 .21h-1.6a.14.14 0 0 1 0-.21h.2c.32 0 .33-.13.33-.74v-1.49c0-.33 0-.38-.23-.53l-.08-.05a.13.13 0 0 1 0-.16 4.48 4.48 0 0 0 .85-.42.1.1 0 0 1 .1.07 3.54 3.54 0 0 0 0 .4.09.09 0 0 0 .1.09 2 2 0 0 1 1.13-.44 1 1 0 0 1 .9.51.32.32 0 0 0 .22-.07 2.13 2.13 0 0 1 1.16-.44 1 1 0 0 1 1 1.06v1.47c0 .61 0 .7.33.74h.21v.21h-1.61c-.06 0-.07-.17 0-.21h.16c.32 0 .32-.13.32-.74zm3.56-.25c0-.33 0-.38-.24-.53l-.07-.05a.11.11 0 0 1 0-.16 5.77 5.77 0 0 0 .87-.42h.09v2.6c0 .61 0 .7.32.74h.18a.14.14 0 0 1 0 .21h-1.6c-.06 0-.07-.17 0-.21h.18c.32 0 .33-.13.33-.74zm.7-2.44a.44.44 0 1 1-.88 0 .44.44 0 0 1 .46-.46.43.43 0 0 1 .43.46zm3.01.07c0-.5 0-.55-.26-.7l-.09-.06v-.17a5.42 5.42 0 0 0 .93-.36.12.12 0 0 1 .09 0v2.9a.32.32 0 0 0 0 .17 2 2 0 0 1 1.15-.45 1 1 0 0 1 1.1 1.11v1.42c0 .61 0 .71.33.74h.23a.14.14 0 0 1 0 .21h-1.65a.15.15 0 0 1 0-.21h.17c.31 0 .32-.13.32-.74v-1.22c0-.55-.26-.91-.81-.91a1 1 0 0 0-.66.23c-.15.12-.18.17-.18.47v1.43c0 .61 0 .7.32.74h.18c.06 0 0 .19 0 .21h-1.64c-.06 0-.07-.17 0-.21h.21c.32 0 .32-.13.32-.74zm7.09 3.05c.12 0 .14-.12.14-.25v-.39c0-.32-.09-.74-.63-.74-.23 0-.52.12-.54.38s0 .24-.09.29a.89.89 0 0 1-.48.16.11.11 0 0 1-.12-.12c0-.44 1-1.05 1.59-1.05s.91.36.88 1v1.49c0 .39.06.74.4.74a.59.59 0 0 0 .21-.05.3.3 0 0 1 .11-.06s.06 0 .06.11a.91.91 0 0 1-.72.38.67.67 0 0 1-.55-.27c0-.05-.09-.12-.14-.12a1.43 1.43 0 0 0-.33.17 1.22 1.22 0 0 1-.61.22.87.87 0 0 1-.6-.2.79.79 0 0 1-.27-.6c0-.33.16-.53.71-.72zm-.53 1.5a1 1 0 0 0 .52-.21.56.56 0 0 0 .11-.4v-.51c0-.09 0-.11-.09-.11a1.76 1.76 0 0 0-.35.09c-.5.17-.75.3-.75.63a.51.51 0 0 0 .56.51zm4.12-2.18c0-.33 0-.38-.23-.53l-.08-.05a.13.13 0 0 1 0-.16 6.76 6.76 0 0 0 .86-.42s.07 0 .07.07v.57a1.69 1.69 0 0 1 .94-.52.36.36 0 0 1 .38.35.38.38 0 0 1-.37.39.42.42 0 0 1-.19-.06.71.71 0 0 0-.37-.14.39.39 0 0 0-.31.17 1.38 1.38 0 0 0-.11.66v1.16c0 .61 0 .72.34.74h.31a.14.14 0 0 1 0 .21h-1.73a.14.14 0 0 1 0-.21h.17c.31 0 .32-.13.32-.74zm4.58 0c0-.33 0-.38-.23-.53l-.07-.05a.12.12 0 0 1 0-.16 6 6 0 0 0 .89-.42.08.08 0 0 1 .08 0v2.6c0 .61 0 .7.32.74h.18a.14.14 0 0 1 0 .21h-1.6a.14.14 0 0 1 0-.21h.18c.32 0 .32-.13.32-.74zm.71-2.44a.44.44 0 0 1-.88 0 .44.44 0 0 1 .46-.46.43.43 0 0 1 .45.46z" fill="#fff" data-name="レイヤー 1"/></g></svg>