<svg xmlns="http://www.w3.org/2000/svg" viewBox="0 0 20.75 39.8"><path d="M.41.74C-.06.8 0 1.36 0 1.85s.13 2.54.13 3.7v6a.26.26 0 0 0 .26.21.25.25 0 0 0 .25-.21v-6c0-1.14.13-3.29.13-3.7S.87.8.41.74zm1.26 10.14a.25.25 0 0 0 .33-.17c0-.2.81-4.78 1-5.92s.69-3.23.76-3.63S4 .14 3.56 0 3.06.54 3 1s-.31 2.53-.51 3.67-1 5.72-1 5.94a.25.25 0 0 0 .18.27zm14.63 2.29c.45-.19 1-.36.86-.81s-.73-.13-1.18.07-2.29 1.12-3.35 1.57-5.35 2.26-5.53 2.38a.25.25 0 0 0 .2.46c.21 0 4.47-1.88 5.54-2.34s3.08-1.17 3.46-1.33zm-7.75 3.94a.26.26 0 0 0-.14.3.26.26 0 0 0 .27.19c.21 0 4.7-1.23 5.82-1.52s4.4-1 4.8-1.14 1-.22 1-.68-.7-.23-1.17-.1-3.61 1.09-4.73 1.38S8.74 17 8.55 17.11zm-.73-2.6a.25.25 0 0 0-.05.32.26.26 0 0 0 .31.12c.21-.08 4.19-2.47 5.19-3.07s3.94-2.2 4.3-2.4.93-.49.74-.92-.74 0-1.15.22S14 10.82 13 11.41s-5 2.96-5.18 3.1zm5.86-6.27c-.33.26-1.95 1.65-2.87 2.35S6.18 14.09 6 14.26a.26.26 0 0 0 0 .33.25.25 0 0 0 .32.07c.19-.1 3.88-2.93 4.8-3.63s2.69-1.9 3-2.15.87-.58.64-1-.7.12-1.08.36zM8 7.84c-.69.93-3.45 4.67-3.54 4.87a.26.26 0 0 0 .08.32.27.27 0 0 0 .33 0c.13-.17 2.88-3.94 3.57-4.87s2-2.59 2.29-2.92.66-.81.32-1.13-.69.26-1 .66S8.68 6.9 8 7.84zM6.08 12.6a.25.25 0 0 0 0 .32.26.26 0 0 0 .33 0c.18-.12 3.42-3.46 4.23-4.29s3.25-3.14 3.54-3.43.77-.71.49-1.07-.73.16-1.07.51-2.54 2.78-3.35 3.61-4.05 4.16-4.17 4.35zm-3.63-.36a.24.24 0 0 0 .31-.1C2.89 12 4.65 7.66 5.1 6.6s1.38-3 1.54-3.37.46-1 .06-1.18-.62.42-.8.87S5 5.31 4.59 6.38 2.34 11.74 2.3 12a.24.24 0 0 0 .15.24zM4 11.77a.27.27 0 0 0 .33 0c.14-.16 2.51-4.16 3.1-5.16S9.81 2.75 10 2.4s.59-.87.22-1.16-.66.32-.91.74-1.8 3.31-2.4 4.3-3 5-3.07 5.18a.26.26 0 0 0 .16.31zm13.39 6.28c.48-.05 1.05-.06 1.05-.52s-.66-.34-1.14-.28-2.51.42-3.67.56-5.77.64-6 .7a.26.26 0 0 0-.18.28.25.25 0 0 0 .23.23c.22 0 4.84-.54 6-.67s3.32-.25 3.71-.3zM.68 34.25v-6A.25.25 0 0 0 .41 28a.26.26 0 0 0-.26.21v6C.15 35.35 0 37.54 0 38s-.06 1 .41 1.11.4-.62.4-1.11-.13-2.59-.13-3.75zM19.64 19.5c-.41 0-3.77.13-4.93.13h-6a.25.25 0 0 0 0 .5h6c1.14 0 4.52.13 4.93.13s1.05.06 1.11-.4-.62-.37-1.11-.36zM7.48 21a.25.25 0 0 0 .18.27c.2.07 4.82.58 6 .71s3.26.51 3.67.55 1 .18 1.14-.27-.57-.47-1.05-.53-2.54-.16-3.69-.29-5.77-.69-6-.67a.25.25 0 0 0-.25.23zM3 38.78c.08.48.12 1 .58 1s.3-.68.21-1.16S3.21 36.15 3 35s-1-5.71-1-5.91a.25.25 0 0 0-.28-.17.26.26 0 0 0-.21.25c0 .22.81 4.8 1 5.94s.4 3.26.49 3.67zm4.1-15.36c.18.12 4.46 1.92 5.53 2.38s3 1.41 3.35 1.57.94.46 1.18.06-.41-.61-.86-.8-2.39-.88-3.46-1.34S7.51 23 7.3 23a.26.26 0 0 0-.2.47zm12.2 1.44c-.4-.1-3.68-.84-4.8-1.14s-5.61-1.51-5.82-1.52a.26.26 0 0 0-.27.19.26.26 0 0 0 .14.3c.19.1 4.69 1.26 5.81 1.56s4.34 1.28 4.73 1.39 1 .32 1.17-.1-.49-.54-.96-.68zm-1.73 5.46c-.36-.2-3.31-1.81-4.3-2.41s-5-3-5.19-3.06a.26.26 0 0 0-.31.11.27.27 0 0 0 .05.33c.16.15 4.17 2.5 5.17 3.1S16.8 30.8 17.16 31s.87.59 1.15.22-.31-.65-.74-.9zM6 25.21a.26.26 0 0 0 0 .33c.15.17 3.86 3 4.78 3.67s2.54 2.09 2.87 2.34.79.69 1.12.35-.25-.69-.64-1-2.1-1.44-3-2.14-4.61-3.54-4.8-3.63a.25.25 0 0 0-.33.08zm-1.46 1.56a.26.26 0 0 0-.08.32C4.55 27.29 7.31 31 8 32s1.84 2.7 2.08 3 .57.88 1 .66 0-.74-.32-1.13-1.61-2-2.29-2.92-3.47-4.67-3.6-4.82a.27.27 0 0 0-.33-.02zm10.16 8.87c.28-.37-.15-.73-.49-1.07s-2.73-2.57-3.54-3.43-4-4.17-4.23-4.29a.26.26 0 0 0-.33 0 .25.25 0 0 0 0 .32c.12.19 3.39 3.49 4.2 4.32s3.07 3.32 3.35 3.61.66.82 1.04.54zM2.45 27.56a.24.24 0 0 0-.15.29c0 .21 1.85 4.49 2.29 5.56s1.15 3.09 1.31 3.47.35 1 .8.87.13-.73-.06-1.18-1.1-2.3-1.54-3.37-2.21-5.37-2.34-5.55a.25.25 0 0 0-.31-.09zM4 28a.26.26 0 0 0-.11.31c.08.2 2.48 4.18 3.07 5.18s2.21 3.94 2.42 4.29.49.93.91.75 0-.74-.22-1.16-2-3.17-2.64-4.16-3-5-3.1-5.16A.25.25 0 0 0 4 28z" fill="#fff" data-name="レイヤー 2"/></svg>